<svg xmlns="http://www.w3.org/2000/svg" viewBox="0 0 16 16" width="16" height="16">
  <defs>
    <linearGradient id="grad" x1="0%" y1="0%" x2="100%" y2="100%">
      <stop offset="0%" style="stop-color:#4F46E5"/>
      <stop offset="100%" style="stop-color:#7C3AED"/>
    </linearGradient>
  </defs>
  
  <!-- Background -->
  <circle cx="8" cy="8" r="7.5" fill="url(#grad)" stroke="#1F2937"/>
  
  <!-- Simplified dancing figures -->
  <g fill="#FFFFFF">
    <!-- Left figure (male) -->
    <circle cx="6" cy="4" r="1"/>
    <rect x="5.5" y="5" width="1" height="4" rx="0.5"/>
    <path d="M5 6 L4 7 L4.5 7.5 L5.5 6.5"/>
    <path d="M6.5 6 L8 7"/>
    <rect x="5" y="9" width="0.5" height="3" rx="0.25"/>
    <rect x="6.5" y="9" width="0.5" height="3" rx="0.25"/>
    
    <!-- Right figure (female) -->
    <circle cx="10" cy="3.5" r="1"/>
    <path d="M9.5 4.5 L10.5 4.5 L10.5 8 Q10 9 9.5 8 Z"/>
    <path d="M9.5 5.5 L8 6.5"/>
    <path d="M10.5 5.5 L12 6"/>
    <path d="M9.5 8 Q9 10 8.5 11.5"/>
    <path d="M10.5 8 Q11 10 11.5 11.5"/>
  </g>
</svg>
